<?xml version="1.0" standalone="no"?>
<!DOCTYPE svg PUBLIC "-//W3C//DTD SVG 20010904//EN"
 "http://www.w3.org/TR/2001/REC-SVG-20010904/DTD/svg10.dtd">
<svg version="1.0" xmlns="http://www.w3.org/2000/svg"
 width="3508.000000pt" height="2481.000000pt" viewBox="0 0 3508.000000 2481.000000"
 preserveAspectRatio="xMidYMid meet">

<g transform="translate(0.000000,2481.000000) scale(0.100000,-0.100000)"
fill="#000000" stroke="none">
<path d="M18172 17748 l-53 -10 7 -46 c3 -26 12 -57 20 -69 7 -11 255 -264
550 -562 577 -582 574 -580 644 -551 17 7 39 25 50 40 10 15 68 141 129 281
60 140 125 290 145 334 102 221 68 263 -310 380 -267 83 -452 124 -812 180
-240 36 -282 39 -370 23z m388 -153 c123 -19 295 -51 383 -71 251 -56 602
-166 636 -198 11 -12 6 -29 -29 -107 -43 -95 -224 -514 -241 -558 -10 -24 -31
-4 -410 375 -413 412 -588 594 -572 594 6 0 111 -16 233 -35z"/>
<path d="M17325 17723 c-371 -18 -740 -91 -1146 -227 -170 -57 -198 -69 -226
-100 -54 -58 -50 -76 95 -413 71 -164 139 -325 152 -357 44 -111 106 -154 178
-124 32 13 1242 1201 1242 1219 0 8 -146 10 -295 2z m-490 -608 c-269 -267
-492 -485 -495 -485 -4 0 -26 48 -50 108 -23 59 -87 209 -142 333 -54 125 -98
231 -98 237 0 20 374 140 610 196 195 46 467 86 640 94 20 1 -80 -103 -465
-483z"/>
<path d="M17775 17683 c-34 -18 -1273 -1243 -1292 -1276 -7 -12 -12 -39 -13
-59 0 -60 38 -93 185 -164 72 -34 335 -160 585 -279 250 -120 481 -228 512
-241 58 -24 58 -24 105 -6 77 30 1235 583 1267 605 15 11 34 34 42 52 29 70
39 58 -628 730 -342 344 -634 633 -649 641 -36 18 -76 17 -114 -3z m566 -620
c588 -591 694 -701 687 -708 -11 -12 -1203 -575 -1217 -575 -8 0 -242 109
-520 241 -278 133 -548 262 -600 286 l-94 43 614 610 c338 335 617 609 620
609 3 1 232 -227 510 -506z"/>
<path d="M19890 17293 c-45 -24 -66 -57 -130 -205 -29 -68 -97 -225 -151 -349
-65 -149 -99 -239 -99 -263 0 -54 41 -95 105 -104 28 -4 412 -5 854 -2 l804 5
-129 124 c-286 274 -551 471 -904 668 -256 143 -291 156 -350 126z m193 -184
c328 -177 621 -378 817 -558 l65 -60 -662 -1 c-365 0 -663 1 -663 3 0 2 25 59
56 128 31 68 92 210 136 314 85 200 105 245 113 245 3 0 65 -32 138 -71z"/>
<path d="M15594 17251 c-198 -94 -572 -327 -777 -484 -65 -51 -144 -112 -175
-135 -91 -70 -130 -112 -146 -158 l-15 -43 42 -31 41 -30 734 0 c641 0 738 2
767 15 39 19 59 54 58 99 -1 19 -51 148 -116 297 -63 145 -132 303 -152 352
-64 151 -130 180 -261 118z m189 -271 c36 -85 97 -227 136 -315 39 -88 71
-163 71 -167 0 -9 -721 -8 -1069 1 l-234 6 127 100 c228 180 519 367 790 509
73 38 92 44 102 34 7 -7 41 -83 77 -168z"/>
<path d="M14350 16218 c-33 -17 -51 -35 -67 -68 l-23 -44 0 -832 c0 -457 3
-846 6 -863 4 -18 20 -45 36 -62 52 -51 81 -45 490 100 200 71 464 164 588
206 124 43 242 86 262 96 44 22 102 78 122 117 7 15 54 160 104 322 50 162
134 430 187 595 103 320 110 361 69 407 -44 49 -29 48 -907 48 l-823 0 -44
-22z m1654 -109 c24 1 27 14 -92 -359 -55 -173 -133 -421 -173 -550 -82 -268
-96 -300 -141 -328 -18 -11 -186 -73 -373 -137 -187 -65 -450 -158 -585 -206
-135 -48 -246 -86 -247 -85 -2 2 -6 1589 -4 1639 1 10 11 21 24 26 12 5 371 7
797 4 426 -2 783 -4 794 -4z"/>
<path d="M19585 16233 c-32 -9 -65 -34 -81 -64 -30 -58 -42 -14 312 -1124 58
-184 80 -222 146 -256 23 -12 197 -74 387 -139 190 -65 472 -162 626 -215 303
-104 333 -109 381 -64 47 44 47 40 40 923 -8 932 -4 879 -82 923 l-39 23 -835
-1 c-459 -1 -844 -4 -855 -6z m1672 -126 c9 -10 21 -1617 12 -1630 -3 -4 -187
55 -410 132 -222 76 -501 172 -619 212 -130 44 -223 82 -237 95 -13 13 -42 86
-76 195 -228 718 -309 974 -314 985 -4 12 101 14 633 17 886 4 1001 3 1011 -6z"/>
<path d="M19215 16163 c-24 -6 -1097 -512 -1108 -523 -5 -4 -11 -34 -14 -66
l-5 -59 821 -328 c451 -181 824 -327 829 -325 5 1 -80 281 -187 620 -172 541
-200 622 -226 648 -30 30 -73 43 -110 33z m181 -611 c84 -262 151 -478 150
-479 -4 -4 -1266 502 -1266 507 0 8 954 458 960 453 3 -2 73 -219 156 -481z"/>
<path d="M16306 16125 c-25 -25 -42 -57 -59 -112 -14 -43 -89 -284 -167 -535
l-142 -457 18 -38 c12 -24 32 -45 55 -56 42 -20 30 -23 239 63 69 29 328 135
575 236 631 257 818 337 815 349 -2 8 -420 211 -1071 521 -167 79 -209 84
-263 29z m567 -315 c257 -123 467 -227 467 -230 0 -6 -429 -185 -988 -411
-139 -56 -255 -99 -258 -96 -3 3 53 194 125 425 72 231 131 422 131 425 0 17
43 117 48 114 4 -2 217 -104 475 -227z"/>
<path d="M21524 16074 c-4 -14 -7 -364 -8 -778 -1 -827 0 -847 54 -901 50 -49
83 -43 330 62 118 50 262 110 320 133 131 52 163 72 191 116 36 58 24 111 -61
277 -87 169 -201 369 -277 487 -150 232 -372 496 -503 600 l-39 31 -7 -27z
m290 -458 c105 -141 166 -232 250 -374 71 -120 205 -372 231 -434 l15 -37 -30
-16 c-17 -9 -90 -40 -163 -70 -73 -29 -205 -85 -294 -123 -115 -49 -165 -67
-170 -59 -5 7 -9 307 -11 667 l-2 655 46 -49 c25 -28 83 -100 128 -160z"/>
<path d="M13939 15918 c-243 -290 -421 -563 -601 -916 -100 -198 -110 -228
-97 -277 12 -43 51 -73 149 -115 41 -18 193 -86 338 -152 277 -126 317 -137
366 -104 58 37 56 17 54 857 l-3 772 -50 18 c-27 10 -55 18 -60 18 -6 1 -49
-45 -96 -101z m77 -1445 c-2 -3 -120 48 -263 112 -142 64 -288 131 -325 147
l-67 30 86 172 c143 285 315 559 497 791 l71 89 3 -668 c1 -368 0 -671 -2
-673z"/>
<path d="M17705 15456 c-28 -8 -208 -80 -400 -159 -193 -80 -571 -235 -841
-345 -270 -110 -510 -210 -533 -222 -82 -41 -124 -97 -189 -252 -154 -366
-393 -926 -535 -1253 -168 -390 -184 -442 -166 -539 6 -32 61 -178 124 -324
150 -355 380 -901 500 -1192 54 -129 110 -254 126 -276 43 -62 98 -101 212
-149 457 -191 1679 -689 1727 -704 l62 -19 81 27 c45 16 379 152 742 303 363
151 752 313 864 359 225 93 281 130 325 218 13 25 92 208 176 406 84 198 244
574 355 835 112 262 209 497 216 523 24 96 12 138 -146 523 -81 197 -239 586
-351 863 -112 277 -213 518 -224 537 -12 18 -45 55 -75 83 -47 42 -78 58 -212
111 -87 34 -490 195 -897 357 -704 281 -742 295 -815 299 -47 2 -95 -1 -126
-10z m715 -335 c300 -121 684 -274 853 -340 170 -67 326 -130 347 -141 82 -42
105 -84 249 -441 74 -184 230 -570 349 -859 183 -449 214 -532 214 -575 -1
-43 -45 -153 -300 -750 -164 -385 -331 -777 -371 -872 -58 -137 -80 -179 -109
-205 -27 -24 -116 -66 -312 -148 -151 -62 -549 -228 -885 -368 -546 -228 -616
-255 -665 -255 -49 0 -127 30 -750 287 -382 158 -774 319 -870 359 -203 82
-241 103 -274 155 -14 20 -117 258 -229 527 -113 270 -271 645 -353 835 -143
334 -147 347 -147 415 -1 69 2 75 235 615 129 300 293 682 364 850 70 168 138
321 150 341 13 20 38 46 56 57 18 11 206 91 418 177 212 86 597 244 855 350
259 106 477 195 485 198 8 3 44 6 80 6 61 1 89 -9 610 -218z"/>
<path d="M20043 14558 l-41 -43 326 -802 c180 -442 330 -803 333 -803 11 0
639 1135 652 1176 13 41 -8 93 -47 119 -23 15 -1149 395 -1171 395 -6 0 -29
-19 -52 -42z m640 -284 c350 -117 497 -170 495 -179 -5 -21 -492 -895 -499
-895 -3 0 -113 264 -244 588 -131 323 -245 602 -252 620 -7 17 -10 32 -6 32 5
0 232 -75 506 -166z"/>
<path d="M14935 14376 c-455 -160 -525 -187 -557 -218 -33 -31 -38 -40 -38
-81 0 -41 32 -108 293 -606 160 -309 296 -561 301 -562 14 -1 658 1510 664
1558 4 35 0 46 -21 67 -48 48 -74 41 -642 -158z m504 17 c-52 -139 -514 -1202
-519 -1196 -13 15 -450 860 -450 870 0 6 114 50 253 99 138 48 356 125 482
170 127 45 233 82 237 83 4 0 3 -11 -3 -26z"/>
<path d="M22320 14507 c-376 -157 -598 -253 -618 -265 -35 -23 -55 -68 -47
-111 6 -31 64 -94 409 -441 221 -223 464 -474 540 -557 76 -84 140 -153 143
-153 2 0 30 21 60 47 l55 47 -6 96 c-25 346 -112 772 -235 1150 -42 129 -56
161 -84 189 -54 51 -91 51 -217 -2z m187 -247 c62 -186 133 -471 168 -670 26
-155 57 -391 51 -397 -2 -2 -38 36 -81 84 -44 49 -254 264 -467 479 l-389 390
178 74 c98 41 243 102 323 137 80 34 150 61 155 60 6 -2 33 -73 62 -157z"/>
<path d="M13185 14526 c-58 -26 -82 -68 -144 -259 -101 -312 -128 -427 -186
-802 -19 -125 -25 -199 -23 -280 l3 -110 45 -22 c25 -12 50 -22 57 -22 13 -1
1028 997 1055 1038 10 14 18 43 18 63 0 69 -20 82 -390 247 -188 84 -355 154
-373 157 -18 2 -46 -2 -62 -10z m288 -220 c128 -57 268 -120 312 -139 44 -20
80 -39 80 -44 0 -10 -899 -903 -909 -903 -11 0 -6 34 60 450 22 141 67 316
135 527 55 171 73 213 86 213 3 0 109 -47 236 -104z"/>
<path d="M21441 14018 c-24 -17 -101 -145 -313 -523 -371 -660 -371 -659 -371
-728 0 -31 6 -71 14 -89 7 -18 97 -184 200 -368 103 -184 243 -436 311 -560
132 -239 158 -270 222 -270 17 0 45 8 61 19 17 10 201 187 411 392 209 206
467 457 573 559 106 101 202 200 213 218 27 44 27 110 -1 154 -11 18 -290 300
-620 626 -555 547 -603 592 -634 592 -19 0 -48 -10 -66 -22z m1214 -1268 c4
-10 -69 -88 -232 -245 -131 -126 -391 -380 -577 -563 l-339 -334 -17 29 c-10
15 -92 163 -183 328 -91 165 -224 405 -296 534 -85 153 -131 245 -131 264 0
20 98 205 311 583 l311 553 574 -567 c315 -311 576 -573 579 -582z"/>
<path d="M13956 13852 c-339 -323 -1001 -972 -1035 -1014 -30 -38 -33 -47 -29
-94 3 -35 12 -61 29 -82 13 -16 164 -164 334 -328 171 -164 427 -414 570 -555
271 -266 300 -288 364 -274 15 3 42 20 58 38 42 44 582 1107 596 1172 8 39 7
59 -4 90 -12 35 -210 422 -511 999 -84 161 -106 188 -165 205 -32 9 -35 7
-207 -157z m482 -536 c155 -300 282 -555 282 -567 0 -28 -548 -1109 -562
-1109 -6 0 -124 111 -262 248 -138 136 -390 381 -561 546 -170 164 -313 304
-317 310 -5 8 66 84 200 213 114 110 369 358 566 551 197 194 362 352 366 352
4 0 134 -245 288 -544z"/>
<path d="M14652 12046 c-155 -307 -284 -573 -288 -592 -8 -45 17 -104 57 -133
17 -12 145 -63 287 -112 141 -50 332 -117 424 -150 92 -32 185 -67 207 -78 22
-12 60 -25 85 -31 82 -18 142 24 153 107 4 30 -3 53 -31 108 -20 39 -68 147
-107 240 -198 473 -492 1172 -499 1184 -5 9 -105 -181 -288 -543z m398 -41
c67 -159 172 -409 232 -555 60 -146 123 -288 139 -316 16 -28 29 -54 29 -57 0
-3 -25 5 -56 19 -55 24 -405 150 -664 239 -214 73 -241 85 -238 104 4 20 429
864 433 859 2 -2 58 -133 125 -293z"/>
<path d="M20595 12457 c-18 -18 -37 -48 -43 -67 -5 -19 -132 -321 -282 -670
-150 -349 -277 -652 -282 -673 -10 -36 2 -91 30 -135 7 -10 149 33 613 184
332 108 616 203 631 210 36 19 62 69 55 109 -3 17 -122 242 -265 501 -142 258
-262 479 -266 491 -4 12 -23 36 -42 52 -50 44 -104 43 -149 -2z m340 -590
c136 -247 243 -452 239 -457 -10 -10 -1034 -343 -1039 -338 -1 2 118 287 266
633 148 347 269 632 269 635 0 3 4 -2 9 -10 5 -8 120 -217 256 -463z"/>
<path d="M22214 11958 c-297 -292 -547 -545 -556 -562 -24 -41 -23 -66 5 -106
31 -46 688 -391 759 -398 97 -9 143 74 257 472 83 287 149 647 176 959 8 87 6
91 -61 137 l-41 29 -539 -531z m486 114 c-44 -307 -111 -593 -202 -867 -53
-158 -64 -185 -77 -185 -14 0 -633 326 -632 333 1 4 210 212 464 464 529 524
482 498 447 255z"/>
<path d="M12873 12448 c-62 -34 -59 -17 -38 -229 39 -398 142 -854 265 -1172
50 -129 80 -162 148 -161 41 0 86 22 367 173 379 205 390 212 411 252 26 52
12 92 -59 163 -304 304 -1027 1006 -1033 1005 -5 -1 -33 -15 -61 -31z m745
-811 c244 -239 280 -278 265 -287 -117 -70 -628 -338 -634 -333 -10 11 -82
211 -112 313 -69 230 -130 518 -162 765 -28 218 -43 217 173 4 103 -101 314
-309 470 -462z"/>
<path d="M14337 11140 c-18 -16 -39 -47 -45 -68 -18 -60 -32 -544 -32 -1137
l0 -531 23 -44 c12 -24 35 -53 50 -64 28 -21 39 -21 855 -24 568 -2 839 0 864
8 49 14 81 60 81 114 -1 62 -375 1239 -408 1282 -49 64 -88 83 -406 193 -173
60 -435 152 -583 205 -308 110 -343 116 -399 66z m359 -186 c148 -53 403 -143
568 -200 164 -57 309 -110 322 -119 13 -8 31 -26 39 -39 9 -13 72 -201 140
-417 68 -217 151 -479 184 -583 33 -105 58 -193 55 -198 -3 -4 -360 -8 -793
-8 -637 0 -791 3 -805 13 -17 13 -18 47 -16 668 2 766 9 979 34 979 2 0 124
-43 272 -96z"/>
<path d="M20955 11074 c-159 -52 -445 -144 -634 -205 -189 -60 -360 -118 -381
-129 -49 -25 -104 -87 -123 -141 -9 -24 -59 -195 -112 -379 -53 -184 -128
-441 -166 -570 -39 -129 -71 -254 -72 -278 0 -51 24 -89 74 -115 32 -16 91
-17 905 -15 l871 3 37 29 c73 55 70 3 56 941 -11 764 -14 844 -30 881 -18 43
-66 74 -112 74 -12 -1 -153 -43 -313 -96z m319 -66 c3 -18 7 -310 11 -648 3
-338 8 -691 11 -785 5 -143 4 -173 -9 -190 -15 -20 -26 -20 -852 -18 -461 1
-839 4 -842 7 -2 2 32 125 76 273 44 147 123 416 175 597 82 284 98 333 124
358 24 25 94 50 428 158 219 71 500 163 624 204 124 40 230 74 237 75 7 1 14
-14 17 -31z"/>
<path d="M13913 11088 c-447 -239 -577 -314 -605 -352 -42 -58 -38 -100 20
-221 143 -295 356 -633 556 -883 115 -143 145 -174 164 -168 9 3 36 10 60 16
l42 11 0 790 0 791 -34 34 c-49 49 -82 46 -203 -18z m117 -753 c0 -366 -3
-665 -7 -665 -11 0 -113 132 -211 270 -171 244 -425 707 -399 728 17 14 600
332 610 332 4 0 7 -299 7 -665z"/>
<path d="M21553 11116 l-28 -24 4 -849 c2 -466 5 -850 7 -852 10 -11 281 293
397 446 212 280 477 742 477 830 0 78 -9 84 -397 286 -390 203 -407 209 -460
163z m295 -220 c108 -57 252 -131 320 -165 l123 -62 -75 -145 c-140 -265 -276
-475 -451 -694 l-100 -125 -6 305 c-12 533 -17 990 -13 990 3 0 94 -47 202
-104z"/>
<path d="M19670 10664 c-19 -9 -404 -169 -855 -356 -451 -187 -831 -346 -844
-353 -22 -11 -4 -22 270 -162 162 -83 425 -214 586 -292 249 -122 301 -144
352 -148 97 -9 148 33 196 161 32 85 337 1144 333 1156 -2 5 -19 2 -38 -6z
m-154 -221 c-3 -10 -57 -199 -120 -420 -122 -424 -147 -499 -174 -533 -17 -21
-18 -21 -67 -4 -28 9 -243 113 -480 232 -376 188 -427 216 -408 225 64 28
1239 516 1246 516 5 1 6 -7 3 -16z"/>
<path d="M15994 10581 c-33 -15 -54 -51 -54 -97 0 -25 63 -242 159 -554 149
-479 162 -516 195 -548 60 -60 76 -56 427 113 167 81 441 212 609 293 168 80
307 147 310 149 2 2 -2 8 -10 13 -36 22 -1555 632 -1583 636 -18 2 -42 0 -53
-5z m704 -387 c334 -135 614 -250 622 -254 11 -6 -50 -40 -210 -117 -123 -59
-337 -163 -475 -229 -137 -67 -254 -118 -258 -114 -4 4 -64 188 -133 409 -69
222 -135 436 -148 477 -13 41 -19 74 -14 74 5 0 283 -111 616 -246z"/>
<path d="M17720 9836 c-25 -7 -187 -82 -360 -165 -173 -84 -434 -209 -580
-278 -329 -154 -367 -186 -327 -275 7 -15 303 -315 659 -667 570 -564 651
-641 688 -651 86 -23 75 -32 691 596 310 316 590 605 623 641 53 60 58 70 52
101 -3 19 -17 47 -31 62 -14 15 -285 154 -647 333 -669 329 -674 331 -768 303z
m698 -409 c326 -162 595 -297 598 -300 6 -5 -287 -308 -1020 -1054 -83 -84
-154 -153 -159 -153 -10 0 -1244 1221 -1247 1234 0 4 102 57 227 116 125 59
388 185 583 279 256 123 365 171 391 171 27 0 183 -73 627 -293z"/>
<path d="M14535 9147 c-16 -7 -44 -20 -62 -29 l-31 -18 21 -50 c17 -41 43 -70
127 -144 266 -235 572 -442 926 -627 101 -54 140 -69 173 -69 50 0 92 20 114
54 9 13 63 138 121 278 57 139 121 291 142 338 61 139 55 217 -19 257 -30 17
-85 18 -757 20 -537 1 -733 -1 -755 -10z m1445 -131 c0 -7 -33 -92 -73 -187
-41 -96 -102 -241 -136 -324 -34 -82 -65 -156 -70 -164 -7 -11 -31 -2 -117 44
-254 135 -454 259 -632 391 -116 87 -286 226 -297 244 -4 7 235 10 659 10 556
0 666 -2 666 -14z"/>
<path d="M19565 9116 c-48 -21 -70 -53 -70 -100 0 -56 321 -757 365 -798 56
-52 86 -49 234 25 158 78 412 231 550 329 201 144 435 347 566 491 l62 67
-839 0 c-673 -1 -844 -3 -868 -14z m1340 -172 c-154 -143 -377 -307 -590 -433
-169 -101 -365 -205 -372 -198 -8 9 -313 670 -313 679 0 4 300 8 668 8 l667
-1 -60 -55z"/>
<path d="M16250 8983 c-24 -22 -61 -105 -181 -403 -161 -400 -165 -415 -124
-476 27 -41 69 -61 292 -134 240 -80 461 -139 656 -174 101 -19 675 -96 713
-96 4 0 -31 39 -77 88 -46 48 -316 332 -599 632 -283 300 -528 555 -544 568
-43 32 -97 30 -136 -5z m331 -378 c135 -143 345 -366 467 -495 123 -129 218
-236 212 -238 -34 -12 -430 59 -640 114 -191 50 -560 173 -566 189 -3 8 53
159 124 337 71 178 132 331 136 341 3 10 10 17 14 15 4 -2 118 -120 253 -263z"/>
<path d="M19243 8983 c-17 -6 -1183 -1193 -1183 -1203 0 -12 116 -48 175 -56
29 -3 89 1 145 10 52 8 149 23 215 32 271 36 583 112 880 214 204 70 255 113
241 204 -9 66 -321 746 -356 779 -29 26 -81 35 -117 20z m152 -368 c54 -121
120 -267 147 -324 26 -57 48 -110 48 -117 0 -18 -23 -29 -153 -74 -291 -100
-583 -171 -892 -215 -99 -14 -196 -28 -215 -32 -31 -5 19 48 459 496 272 276
498 498 501 494 4 -5 51 -107 105 -228z"/>
</g>
</svg>
